solid OpenSCAD_Model
  facet normal -1 0 0
    outer loop
      vertex 40 43.0835 0
      vertex 40 53.6917 39
      vertex 40 53.6917 0
    endloop
  endfacet
  facet normal -1 -0 0
    outer loop
      vertex 40 53.6917 39
      vertex 40 43.0835 0
      vertex 40 43.0835 39
    endloop
  endfacet
  facet normal 0 -1 0
    outer loop
      vertex 73.7899 0 0
      vertex 85.6168 0 39
      vertex 73.7899 0 39
    endloop
  endfacet
  facet normal 0 -1 -0
    outer loop
      vertex 85.6168 0 39
      vertex 73.7899 0 0
      vertex 85.6168 0 0
    endloop
  endfacet
  facet normal 0 0 -1
    outer loop
      vertex 73.7899 0 0
      vertex 85.5582 0.894638 0
      vertex 85.6168 0 0
    endloop
  endfacet
  facet normal -0 0 -1
    outer loop
      vertex 85.5582 0.894638 0
      vertex 73.7744 0.235443 0
      vertex 85.3186 3.08528 0
    endloop
  endfacet
  facet normal -0 0 -1
    outer loop
      vertex 85.3186 3.08528 0
      vertex 73.5708 2.09749 0
      vertex 84.9836 5.2679 0
    endloop
  endfacet
  facet normal 0 0 -1
    outer loop
      vertex 73.2861 3.9527 0
      vertex 84.9836 5.2679 0
      vertex 73.5708 2.09749 0
    endloop
  endfacet
  facet normal 0 0 -1
    outer loop
      vertex 72.9206 5.79884 0
      vertex 84.5536 7.43982 0
      vertex 73.2861 3.9527 0
    endloop
  endfacet
  facet normal -0 0 -1
    outer loop
      vertex 84.5536 7.43982 0
      vertex 72.9206 5.79884 0
      vertex 84.0291 9.59843 0
    endloop
  endfacet
  facet normal 0 0 -1
    outer loop
      vertex 72.4747 7.63367 0
      vertex 84.0291 9.59843 0
      vertex 72.9206 5.79884 0
    endloop
  endfacet
  facet normal 0 0 -1
    outer loop
      vertex 71.9492 9.45491 0
      vertex 83.4108 11.7411 0
      vertex 72.4747 7.63367 0
    endloop
  endfacet
  facet normal -0 0 -1
    outer loop
      vertex 83.4108 11.7411 0
      vertex 71.9492 9.45491 0
      vertex 82.6994 13.8651 0
    endloop
  endfacet
  facet normal -0 0 -1
    outer loop
      vertex 82.6994 13.8651 0
      vertex 71.3444 11.2604 0
      vertex 81.8957 15.9681 0
    endloop
  endfacet
  facet normal 0 0 -1
    outer loop
      vertex 70.6613 13.0478 0
      vertex 81.8957 15.9681 0
      vertex 71.3444 11.2604 0
    endloop
  endfacet
  facet normal 0 0 -1
    outer loop
      vertex 69.9007 14.8152 0
      vertex 81.0008 18.0473 0
      vertex 70.6613 13.0478 0
    endloop
  endfacet
  facet normal -0 0 -1
    outer loop
      vertex 81.0008 18.0473 0
      vertex 69.9007 14.8152 0
      vertex 80.0157 20.1002 0
    endloop
  endfacet
  facet normal 0 0 -1
    outer loop
      vertex 85.5582 0.894638 0
      vertex 73.7899 0 0
      vertex 73.7744 0.235443 0
    endloop
  endfacet
  facet normal 0 0 -1
    outer loop
      vertex 85.3186 3.08528 0
      vertex 73.7744 0.235443 0
      vertex 73.5708 2.09749 0
    endloop
  endfacet
  facet normal -0 0 -1
    outer loop
      vertex 84.9836 5.2679 0
      vertex 73.2861 3.9527 0
      vertex 84.5536 7.43982 0
    endloop
  endfacet
  facet normal -0 0 -1
    outer loop
      vertex 84.0291 9.59843 0
      vertex 72.4747 7.63367 0
      vertex 83.4108 11.7411 0
    endloop
  endfacet
  facet normal 0 0 -1
    outer loop
      vertex 71.3444 11.2604 0
      vertex 82.6994 13.8651 0
      vertex 71.9492 9.45491 0
    endloop
  endfacet
  facet normal -0 0 -1
    outer loop
      vertex 81.8957 15.9681 0
      vertex 70.6613 13.0478 0
      vertex 81.0008 18.0473 0
    endloop
  endfacet
  facet normal 0 0 -1
    outer loop
      vertex 69.0634 16.5602 0
      vertex 80.0157 20.1002 0
      vertex 69.9007 14.8152 0
    endloop
  endfacet
  facet normal -0 0 -1
    outer loop
      vertex 80.0157 20.1002 0
      vertex 69.0634 16.5602 0
      vertex 78.9417 22.1244 0
    endloop
  endfacet
  facet normal 0 0 -1
    outer loop
      vertex 68.1504 18.2807 0
      vertex 78.9417 22.1244 0
      vertex 69.0634 16.5602 0
    endloop
  endfacet
  facet normal -0 0 -1
    outer loop
      vertex 78.9417 22.1244 0
      vertex 68.1504 18.2807 0
      vertex 77.78 24.1174 0
    endloop
  endfacet
  facet normal 0 0 -1
    outer loop
      vertex 67.163 19.9748 0
      vertex 77.78 24.1174 0
      vertex 68.1504 18.2807 0
    endloop
  endfacet
  facet normal -0 0 -1
    outer loop
      vertex 77.78 24.1174 0
      vertex 67.163 19.9748 0
      vertex 76.5321 26.0767 0
    endloop
  endfacet
  facet normal 0 0 -1
    outer loop
      vertex 66.1023 21.6402 0
      vertex 76.5321 26.0767 0
      vertex 67.163 19.9748 0
    endloop
  endfacet
  facet normal -0 0 -1
    outer loop
      vertex 76.5321 26.0767 0
      vertex 66.1023 21.6402 0
      vertex 75.1995 28 0
    endloop
  endfacet
  facet normal -0 0 -1
    outer loop
      vertex 75.1995 28 0
      vertex 66.1023 21.6402 0
      vertex 73.7838 29.8849 0
    endloop
  endfacet
  facet normal 0 0 -1
    outer loop
      vertex 64.9696 23.275 0
      vertex 73.7838 29.8849 0
      vertex 66.1023 21.6402 0
    endloop
  endfacet
  facet normal -0 0 -1
    outer loop
      vertex 73.7838 29.8849 0
      vertex 64.9696 23.275 0
      vertex 72.2867 31.7291 0
    endloop
  endfacet
  facet normal 0 0 -1
    outer loop
      vertex 63.7662 24.8772 0
      vertex 72.2867 31.7291 0
      vertex 64.9696 23.275 0
    endloop
  endfacet
  facet normal -0 0 -1
    outer loop
      vertex 72.2867 31.7291 0
      vertex 63.7662 24.8772 0
      vertex 70.7101 33.5305 0
    endloop
  endfacet
  facet normal 0 0 -1
    outer loop
      vertex 62.4937 26.4448 0
      vertex 70.7101 33.5305 0
      vertex 63.7662 24.8772 0
    endloop
  endfacet
  facet normal -0 0 -1
    outer loop
      vertex 70.7101 33.5305 0
      vertex 62.4937 26.4448 0
      vertex 69.0558 35.2867 0
    endloop
  endfacet
  facet normal 0 0 -1
    outer loop
      vertex 61.1536 27.9759 0
      vertex 69.0558 35.2867 0
      vertex 62.4937 26.4448 0
    endloop
  endfacet
  facet normal -0 0 -1
    outer loop
      vertex 69.0558 35.2867 0
      vertex 61.1536 27.9759 0
      vertex 67.326 36.9956 0
    endloop
  endfacet
  facet normal 0 0 -1
    outer loop
      vertex 59.7475 29.4687 0
      vertex 67.326 36.9956 0
      vertex 61.1536 27.9759 0
    endloop
  endfacet
  facet normal -0 0 -1
    outer loop
      vertex 67.326 36.9956 0
      vertex 59.7475 29.4687 0
      vertex 65.5226 38.6552 0
    endloop
  endfacet
  facet normal 0 0 -1
    outer loop
      vertex 58.2771 30.9213 0
      vertex 65.5226 38.6552 0
      vertex 59.7475 29.4687 0
    endloop
  endfacet
  facet normal -0 0 -1
    outer loop
      vertex 65.5226 38.6552 0
      vertex 58.2771 30.9213 0
      vertex 63.648 40.2635 0
    endloop
  endfacet
  facet normal 0 0 -1
    outer loop
      vertex 56.7442 32.3319 0
      vertex 63.648 40.2635 0
      vertex 58.2771 30.9213 0
    endloop
  endfacet
  facet normal -0 0 -1
    outer loop
      vertex 63.648 40.2635 0
      vertex 56.7442 32.3319 0
      vertex 61.7043 41.8184 0
    endloop
  endfacet
  facet normal 0 0 -1
    outer loop
      vertex 55.1508 33.6989 0
      vertex 61.7043 41.8184 0
      vertex 56.7442 32.3319 0
    endloop
  endfacet
  facet normal -0 0 -1
    outer loop
      vertex 61.7043 41.8184 0
      vertex 55.1508 33.6989 0
      vertex 59.694 43.3181 0
    endloop
  endfacet
  facet normal 0 0 -1
    outer loop
      vertex 53.4987 35.0206 0
      vertex 59.694 43.3181 0
      vertex 55.1508 33.6989 0
    endloop
  endfacet
  facet normal -0 0 -1
    outer loop
      vertex 59.694 43.3181 0
      vertex 53.4987 35.0206 0
      vertex 57.6195 44.7608 0
    endloop
  endfacet
  facet normal 0 0 -1
    outer loop
      vertex 51.7899 36.2954 0
      vertex 57.6195 44.7608 0
      vertex 53.4987 35.0206 0
    endloop
  endfacet
  facet normal 0 0 -1
    outer loop
      vertex 50.0266 37.5217 0
      vertex 57.6195 44.7608 0
      vertex 51.7899 36.2954 0
    endloop
  endfacet
  facet normal -0 0 -1
    outer loop
      vertex 57.6195 44.7608 0
      vertex 50.0266 37.5217 0
      vertex 55.4833 46.1447 0
    endloop
  endfacet
  facet normal 0 0 -1
    outer loop
      vertex 48.2108 38.698 0
      vertex 55.4833 46.1447 0
      vertex 50.0266 37.5217 0
    endloop
  endfacet
  facet normal -0 0 -1
    outer loop
      vertex 55.4833 46.1447 0
      vertex 48.2108 38.698 0
      vertex 53.2881 47.4681 0
    endloop
  endfacet
  facet normal 0 0 -1
    outer loop
      vertex 46.3449 39.8228 0
      vertex 53.2881 47.4681 0
      vertex 48.2108 38.698 0
    endloop
  endfacet
  facet normal -0 0 -1
    outer loop
      vertex 53.2881 47.4681 0
      vertex 46.3449 39.8228 0
      vertex 51.0364 48.7294 0
    endloop
  endfacet
  facet normal 0 0 -1
    outer loop
      vertex 44.431 40.895 0
      vertex 51.0364 48.7294 0
      vertex 46.3449 39.8228 0
    endloop
  endfacet
  facet normal -0 0 -1
    outer loop
      vertex 51.0364 48.7294 0
      vertex 44.431 40.895 0
      vertex 48.7311 49.927 0
    endloop
  endfacet
  facet normal 0 0 -1
    outer loop
      vertex 42.4715 41.913 0
      vertex 48.7311 49.927 0
      vertex 44.431 40.895 0
    endloop
  endfacet
  facet normal -0 0 -1
    outer loop
      vertex 48.7311 49.927 0
      vertex 42.4715 41.913 0
      vertex 46.375 51.0596 0
    endloop
  endfacet
  facet normal 0 0 -1
    outer loop
      vertex 40.4688 42.8756 0
      vertex 46.375 51.0596 0
      vertex 42.4715 41.913 0
    endloop
  endfacet
  facet normal -0 0 -1
    outer loop
      vertex 46.375 51.0596 0
      vertex 40.4688 42.8756 0
      vertex 43.9709 52.1257 0
    endloop
  endfacet
  facet normal 0 0 -1
    outer loop
      vertex 40 43.0835 0
      vertex 43.9709 52.1257 0
      vertex 40.4688 42.8756 0
    endloop
  endfacet
  facet normal -0 0 -1
    outer loop
      vertex 43.9709 52.1257 0
      vertex 40 43.0835 0
      vertex 41.5217 53.124 0
    endloop
  endfacet
  facet normal -0 0 -1
    outer loop
      vertex 41.5217 53.124 0
      vertex 40 43.0835 0
      vertex 40 53.6917 0
    endloop
  endfacet
  facet normal 0 0 1
    outer loop
      vertex 73.7744 0.235443 39
      vertex 85.5582 0.894638 39
      vertex 85.3186 3.08528 39
    endloop
  endfacet
  facet normal 0 0 1
    outer loop
      vertex 73.5708 2.09749 39
      vertex 85.3186 3.08528 39
      vertex 84.9836 5.2679 39
    endloop
  endfacet
  facet normal 0 0 1
    outer loop
      vertex 73.2861 3.9527 39
      vertex 84.9836 5.2679 39
      vertex 84.5536 7.43982 39
    endloop
  endfacet
  facet normal 0 0 1
    outer loop
      vertex 72.9206 5.79884 39
      vertex 84.5536 7.43982 39
      vertex 84.0291 9.59843 39
    endloop
  endfacet
  facet normal 0 0 1
    outer loop
      vertex 72.4747 7.63367 39
      vertex 84.0291 9.59843 39
      vertex 83.4108 11.7411 39
    endloop
  endfacet
  facet normal 0 0 1
    outer loop
      vertex 71.9492 9.45491 39
      vertex 83.4108 11.7411 39
      vertex 82.6994 13.8651 39
    endloop
  endfacet
  facet normal 0 0 1
    outer loop
      vertex 71.3444 11.2604 39
      vertex 82.6994 13.8651 39
      vertex 81.8957 15.9681 39
    endloop
  endfacet
  facet normal 0 0 1
    outer loop
      vertex 70.6613 13.0478 39
      vertex 81.8957 15.9681 39
      vertex 81.0008 18.0473 39
    endloop
  endfacet
  facet normal 0 0 1
    outer loop
      vertex 69.9007 14.8152 39
      vertex 81.0008 18.0473 39
      vertex 80.0157 20.1002 39
    endloop
  endfacet
  facet normal 0 0 1
    outer loop
      vertex 69.0634 16.5602 39
      vertex 80.0157 20.1002 39
      vertex 78.9417 22.1244 39
    endloop
  endfacet
  facet normal 0 0 1
    outer loop
      vertex 68.1504 18.2807 39
      vertex 78.9417 22.1244 39
      vertex 77.78 24.1174 39
    endloop
  endfacet
  facet normal 0 0 1
    outer loop
      vertex 67.163 19.9748 39
      vertex 77.78 24.1174 39
      vertex 76.5321 26.0767 39
    endloop
  endfacet
  facet normal 0 0 1
    outer loop
      vertex 66.1023 21.6402 39
      vertex 76.5321 26.0767 39
      vertex 75.1995 28 39
    endloop
  endfacet
  facet normal 0 0 1
    outer loop
      vertex 82.6994 13.8651 39
      vertex 71.3444 11.2604 39
      vertex 71.9492 9.45491 39
    endloop
  endfacet
  facet normal 0 0 1
    outer loop
      vertex 66.1023 21.6402 39
      vertex 75.1995 28 39
      vertex 73.7838 29.8849 39
    endloop
  endfacet
  facet normal 0 0 1
    outer loop
      vertex 85.5582 0.894638 39
      vertex 73.7899 0 39
      vertex 85.6168 0 39
    endloop
  endfacet
  facet normal 0 -0 1
    outer loop
      vertex 73.7899 0 39
      vertex 85.5582 0.894638 39
      vertex 73.7744 0.235443 39
    endloop
  endfacet
  facet normal 0 -0 1
    outer loop
      vertex 73.7744 0.235443 39
      vertex 85.3186 3.08528 39
      vertex 73.5708 2.09749 39
    endloop
  endfacet
  facet normal 0 0 1
    outer loop
      vertex 84.9836 5.2679 39
      vertex 73.2861 3.9527 39
      vertex 73.5708 2.09749 39
    endloop
  endfacet
  facet normal 0 0 1
    outer loop
      vertex 84.5536 7.43982 39
      vertex 72.9206 5.79884 39
      vertex 73.2861 3.9527 39
    endloop
  endfacet
  facet normal 0 0 1
    outer loop
      vertex 64.9696 23.275 39
      vertex 73.7838 29.8849 39
      vertex 72.2867 31.7291 39
    endloop
  endfacet
  facet normal 0 0 1
    outer loop
      vertex 84.0291 9.59843 39
      vertex 72.4747 7.63367 39
      vertex 72.9206 5.79884 39
    endloop
  endfacet
  facet normal 0 0 1
    outer loop
      vertex 83.4108 11.7411 39
      vertex 71.9492 9.45491 39
      vertex 72.4747 7.63367 39
    endloop
  endfacet
  facet normal 0 0 1
    outer loop
      vertex 63.7662 24.8772 39
      vertex 72.2867 31.7291 39
      vertex 70.7101 33.5305 39
    endloop
  endfacet
  facet normal 0 0 1
    outer loop
      vertex 81.8957 15.9681 39
      vertex 70.6613 13.0478 39
      vertex 71.3444 11.2604 39
    endloop
  endfacet
  facet normal 0 0 1
    outer loop
      vertex 81.0008 18.0473 39
      vertex 69.9007 14.8152 39
      vertex 70.6613 13.0478 39
    endloop
  endfacet
  facet normal 0 0 1
    outer loop
      vertex 80.0157 20.1002 39
      vertex 69.0634 16.5602 39
      vertex 69.9007 14.8152 39
    endloop
  endfacet
  facet normal 0 0 1
    outer loop
      vertex 62.4937 26.4448 39
      vertex 70.7101 33.5305 39
      vertex 69.0558 35.2867 39
    endloop
  endfacet
  facet normal 0 0 1
    outer loop
      vertex 78.9417 22.1244 39
      vertex 68.1504 18.2807 39
      vertex 69.0634 16.5602 39
    endloop
  endfacet
  facet normal 0 0 1
    outer loop
      vertex 61.1536 27.9759 39
      vertex 69.0558 35.2867 39
      vertex 67.326 36.9956 39
    endloop
  endfacet
  facet normal 0 0 1
    outer loop
      vertex 77.78 24.1174 39
      vertex 67.163 19.9748 39
      vertex 68.1504 18.2807 39
    endloop
  endfacet
  facet normal 0 0 1
    outer loop
      vertex 76.5321 26.0767 39
      vertex 66.1023 21.6402 39
      vertex 67.163 19.9748 39
    endloop
  endfacet
  facet normal 0 0 1
    outer loop
      vertex 59.7475 29.4687 39
      vertex 67.326 36.9956 39
      vertex 65.5226 38.6552 39
    endloop
  endfacet
  facet normal 0 0 1
    outer loop
      vertex 73.7838 29.8849 39
      vertex 64.9696 23.275 39
      vertex 66.1023 21.6402 39
    endloop
  endfacet
  facet normal 0 0 1
    outer loop
      vertex 72.2867 31.7291 39
      vertex 63.7662 24.8772 39
      vertex 64.9696 23.275 39
    endloop
  endfacet
  facet normal 0 0 1
    outer loop
      vertex 58.2771 30.9213 39
      vertex 65.5226 38.6552 39
      vertex 63.648 40.2635 39
    endloop
  endfacet
  facet normal 0 0 1
    outer loop
      vertex 70.7101 33.5305 39
      vertex 62.4937 26.4448 39
      vertex 63.7662 24.8772 39
    endloop
  endfacet
  facet normal 0 0 1
    outer loop
      vertex 56.7442 32.3319 39
      vertex 63.648 40.2635 39
      vertex 61.7043 41.8184 39
    endloop
  endfacet
  facet normal 0 0 1
    outer loop
      vertex 69.0558 35.2867 39
      vertex 61.1536 27.9759 39
      vertex 62.4937 26.4448 39
    endloop
  endfacet
  facet normal 0 0 1
    outer loop
      vertex 67.326 36.9956 39
      vertex 59.7475 29.4687 39
      vertex 61.1536 27.9759 39
    endloop
  endfacet
  facet normal 0 0 1
    outer loop
      vertex 55.1508 33.6989 39
      vertex 61.7043 41.8184 39
      vertex 59.694 43.3181 39
    endloop
  endfacet
  facet normal 0 0 1
    outer loop
      vertex 65.5226 38.6552 39
      vertex 58.2771 30.9213 39
      vertex 59.7475 29.4687 39
    endloop
  endfacet
  facet normal 0 0 1
    outer loop
      vertex 53.4987 35.0206 39
      vertex 59.694 43.3181 39
      vertex 57.6195 44.7608 39
    endloop
  endfacet
  facet normal 0 0 1
    outer loop
      vertex 63.648 40.2635 39
      vertex 56.7442 32.3319 39
      vertex 58.2771 30.9213 39
    endloop
  endfacet
  facet normal 0 0 1
    outer loop
      vertex 50.0266 37.5217 39
      vertex 57.6195 44.7608 39
      vertex 55.4833 46.1447 39
    endloop
  endfacet
  facet normal 0 0 1
    outer loop
      vertex 61.7043 41.8184 39
      vertex 55.1508 33.6989 39
      vertex 56.7442 32.3319 39
    endloop
  endfacet
  facet normal 0 0 1
    outer loop
      vertex 59.694 43.3181 39
      vertex 53.4987 35.0206 39
      vertex 55.1508 33.6989 39
    endloop
  endfacet
  facet normal 0 0 1
    outer loop
      vertex 48.2108 38.698 39
      vertex 55.4833 46.1447 39
      vertex 53.2881 47.4681 39
    endloop
  endfacet
  facet normal 0 0 1
    outer loop
      vertex 57.6195 44.7608 39
      vertex 51.7899 36.2954 39
      vertex 53.4987 35.0206 39
    endloop
  endfacet
  facet normal 0 0 1
    outer loop
      vertex 46.3449 39.8228 39
      vertex 53.2881 47.4681 39
      vertex 51.0364 48.7294 39
    endloop
  endfacet
  facet normal 0 0 1
    outer loop
      vertex 57.6195 44.7608 39
      vertex 50.0266 37.5217 39
      vertex 51.7899 36.2954 39
    endloop
  endfacet
  facet normal 0 0 1
    outer loop
      vertex 44.431 40.895 39
      vertex 51.0364 48.7294 39
      vertex 48.7311 49.927 39
    endloop
  endfacet
  facet normal 0 0 1
    outer loop
      vertex 55.4833 46.1447 39
      vertex 48.2108 38.698 39
      vertex 50.0266 37.5217 39
    endloop
  endfacet
  facet normal 0 0 1
    outer loop
      vertex 42.4715 41.913 39
      vertex 48.7311 49.927 39
      vertex 46.375 51.0596 39
    endloop
  endfacet
  facet normal 0 0 1
    outer loop
      vertex 53.2881 47.4681 39
      vertex 46.3449 39.8228 39
      vertex 48.2108 38.698 39
    endloop
  endfacet
  facet normal 0 0 1
    outer loop
      vertex 51.0364 48.7294 39
      vertex 44.431 40.895 39
      vertex 46.3449 39.8228 39
    endloop
  endfacet
  facet normal 0 0 1
    outer loop
      vertex 40.4688 42.8756 39
      vertex 46.375 51.0596 39
      vertex 43.9709 52.1257 39
    endloop
  endfacet
  facet normal 0 0 1
    outer loop
      vertex 48.7311 49.927 39
      vertex 42.4715 41.913 39
      vertex 44.431 40.895 39
    endloop
  endfacet
  facet normal 0 0 1
    outer loop
      vertex 40 43.0835 39
      vertex 43.9709 52.1257 39
      vertex 41.5217 53.124 39
    endloop
  endfacet
  facet normal 0 0 1
    outer loop
      vertex 46.375 51.0596 39
      vertex 40.4688 42.8756 39
      vertex 42.4715 41.913 39
    endloop
  endfacet
  facet normal 0 0 1
    outer loop
      vertex 40 43.0835 39
      vertex 41.5217 53.124 39
      vertex 40 53.6917 39
    endloop
  endfacet
  facet normal 0 0 1
    outer loop
      vertex 43.9709 52.1257 39
      vertex 40 43.0835 39
      vertex 40.4688 42.8756 39
    endloop
  endfacet
  facet normal 0.997862 0.0653613 0
    outer loop
      vertex 85.6168 0 39
      vertex 85.5582 0.894638 0
      vertex 85.5582 0.894638 39
    endloop
  endfacet
  facet normal 0.997862 0.0653613 0
    outer loop
      vertex 85.5582 0.894638 0
      vertex 85.6168 0 39
      vertex 85.6168 0 0
    endloop
  endfacet
  facet normal 0.994072 0.108726 0
    outer loop
      vertex 85.5582 0.894638 39
      vertex 85.3186 3.08528 0
      vertex 85.3186 3.08528 39
    endloop
  endfacet
  facet normal 0.994072 0.108726 0
    outer loop
      vertex 85.3186 3.08528 0
      vertex 85.5582 0.894638 39
      vertex 85.5582 0.894638 0
    endloop
  endfacet
  facet normal 0.988425 0.151709 0
    outer loop
      vertex 85.3186 3.08528 39
      vertex 84.9836 5.2679 0
      vertex 84.9836 5.2679 39
    endloop
  endfacet
  facet normal 0.988425 0.151709 0
    outer loop
      vertex 84.9836 5.2679 0
      vertex 85.3186 3.08528 39
      vertex 85.3186 3.08528 0
    endloop
  endfacet
  facet normal 0.98096 0.194212 0
    outer loop
      vertex 84.9836 5.2679 39
      vertex 84.5536 7.43982 0
      vertex 84.5536 7.43982 39
    endloop
  endfacet
  facet normal 0.98096 0.194212 0
    outer loop
      vertex 84.5536 7.43982 0
      vertex 84.9836 5.2679 39
      vertex 84.9836 5.2679 0
    endloop
  endfacet
  facet normal 0.971726 0.23611 0
    outer loop
      vertex 84.5536 7.43982 39
      vertex 84.0291 9.59843 0
      vertex 84.0291 9.59843 39
    endloop
  endfacet
  facet normal 0.971726 0.23611 0
    outer loop
      vertex 84.0291 9.59843 0
      vertex 84.5536 7.43982 39
      vertex 84.5536 7.43982 0
    endloop
  endfacet
  facet normal 0.960797 0.277253 0
    outer loop
      vertex 84.0291 9.59843 39
      vertex 83.4108 11.7411 0
      vertex 83.4108 11.7411 39
    endloop
  endfacet
  facet normal 0.960797 0.277253 0
    outer loop
      vertex 83.4108 11.7411 0
      vertex 84.0291 9.59843 39
      vertex 84.0291 9.59843 0
    endloop
  endfacet
  facet normal 0.948227 0.317594 0
    outer loop
      vertex 83.4108 11.7411 39
      vertex 82.6994 13.8651 0
      vertex 82.6994 13.8651 39
    endloop
  endfacet
  facet normal 0.948227 0.317594 0
    outer loop
      vertex 82.6994 13.8651 0
      vertex 83.4108 11.7411 39
      vertex 83.4108 11.7411 0
    endloop
  endfacet
  facet normal 0.934109 0.356987 0
    outer loop
      vertex 82.6994 13.8651 39
      vertex 81.8957 15.9681 0
      vertex 81.8957 15.9681 39
    endloop
  endfacet
  facet normal 0.934109 0.356987 0
    outer loop
      vertex 81.8957 15.9681 0
      vertex 82.6994 13.8651 39
      vertex 82.6994 13.8651 0
    endloop
  endfacet
  facet normal 0.918534 0.395342 0
    outer loop
      vertex 81.8957 15.9681 39
      vertex 81.0008 18.0473 0
      vertex 81.0008 18.0473 39
    endloop
  endfacet
  facet normal 0.918534 0.395342 0
    outer loop
      vertex 81.0008 18.0473 0
      vertex 81.8957 15.9681 39
      vertex 81.8957 15.9681 0
    endloop
  endfacet
  facet normal 0.901573 0.432627 0
    outer loop
      vertex 81.0008 18.0473 39
      vertex 80.0157 20.1002 0
      vertex 80.0157 20.1002 39
    endloop
  endfacet
  facet normal 0.901573 0.432627 0
    outer loop
      vertex 80.0157 20.1002 0
      vertex 81.0008 18.0473 39
      vertex 81.0008 18.0473 0
    endloop
  endfacet
  facet normal 0.883361 0.468694 0
    outer loop
      vertex 80.0157 20.1002 39
      vertex 78.9417 22.1244 0
      vertex 78.9417 22.1244 39
    endloop
  endfacet
  facet normal 0.883361 0.468694 0
    outer loop
      vertex 78.9417 22.1244 0
      vertex 80.0157 20.1002 39
      vertex 80.0157 20.1002 0
    endloop
  endfacet
  facet normal 0.863946 0.503585 0
    outer loop
      vertex 78.9417 22.1244 39
      vertex 77.78 24.1174 0
      vertex 77.78 24.1174 39
    endloop
  endfacet
  facet normal 0.863946 0.503585 0
    outer loop
      vertex 77.78 24.1174 0
      vertex 78.9417 22.1244 39
      vertex 78.9417 22.1244 0
    endloop
  endfacet
  facet normal 0.843452 0.537204 0
    outer loop
      vertex 77.78 24.1174 39
      vertex 76.5321 26.0767 0
      vertex 76.5321 26.0767 39
    endloop
  endfacet
  facet normal 0.843452 0.537204 0
    outer loop
      vertex 76.5321 26.0767 0
      vertex 77.78 24.1174 39
      vertex 77.78 24.1174 0
    endloop
  endfacet
  facet normal 0.821975 0.569523 0
    outer loop
      vertex 76.5321 26.0767 39
      vertex 75.1995 28 0
      vertex 75.1995 28 39
    endloop
  endfacet
  facet normal 0.821975 0.569523 0
    outer loop
      vertex 75.1995 28 0
      vertex 76.5321 26.0767 39
      vertex 76.5321 26.0767 0
    endloop
  endfacet
  facet normal 0.799587 0.60055 0
    outer loop
      vertex 75.1995 28 39
      vertex 73.7838 29.8849 0
      vertex 73.7838 29.8849 39
    endloop
  endfacet
  facet normal 0.799587 0.60055 0
    outer loop
      vertex 73.7838 29.8849 0
      vertex 75.1995 28 39
      vertex 75.1995 28 0
    endloop
  endfacet
  facet normal 0.776384 0.63026 0
    outer loop
      vertex 73.7838 29.8849 39
      vertex 72.2867 31.7291 0
      vertex 72.2867 31.7291 39
    endloop
  endfacet
  facet normal 0.776384 0.63026 0
    outer loop
      vertex 72.2867 31.7291 0
      vertex 73.7838 29.8849 39
      vertex 73.7838 29.8849 0
    endloop
  endfacet
  facet normal 0.752499 0.658593 0
    outer loop
      vertex 72.2867 31.7291 39
      vertex 70.7101 33.5305 0
      vertex 70.7101 33.5305 39
    endloop
  endfacet
  facet normal 0.752499 0.658593 0
    outer loop
      vertex 70.7101 33.5305 0
      vertex 72.2867 31.7291 39
      vertex 72.2867 31.7291 0
    endloop
  endfacet
  facet normal 0.727909 0.685674 0
    outer loop
      vertex 70.7101 33.5305 39
      vertex 69.0558 35.2867 0
      vertex 69.0558 35.2867 39
    endloop
  endfacet
  facet normal 0.727909 0.685674 0
    outer loop
      vertex 69.0558 35.2867 0
      vertex 70.7101 33.5305 39
      vertex 70.7101 33.5305 0
    endloop
  endfacet
  facet normal 0.702796 0.711391 0
    outer loop
      vertex 69.0558 35.2867 39
      vertex 67.326 36.9956 22.3763
      vertex 67.326 36.9956 39
    endloop
  endfacet
  facet normal 0.702723 0.711464 1.50986e-05
    outer loop
      vertex 69.0558 35.2867 39
      vertex 67.6186 36.7066 22.1389
      vertex 67.326 36.9956 22.3763
    endloop
  endfacet
  facet normal 0.702864 0.711324 -8.7269e-06
    outer loop
      vertex 69.0558 35.2867 39
      vertex 67.9722 36.3572 21.6912
      vertex 67.6186 36.7066 22.1389
    endloop
  endfacet
  facet normal 0.702774 0.711414 2.4712e-06
    outer loop
      vertex 69.0558 35.2867 39
      vertex 68.252 36.0808 21.15
      vertex 67.9722 36.3572 21.6912
    endloop
  endfacet
  facet normal 0.702859 0.71133 -5.08636e-06
    outer loop
      vertex 69.0558 35.2867 39
      vertex 68.4455 35.8896 20.5389
      vertex 68.252 36.0808 21.15
    endloop
  endfacet
  facet normal 0.702782 0.711405 -7.66659e-08
    outer loop
      vertex 69.0558 35.2867 39
      vertex 68.5445 35.7918 19.8845
      vertex 68.4455 35.8896 20.5389
    endloop
  endfacet
  facet normal 0.70278 0.711407 0
    outer loop
      vertex 69.0558 35.2867 39
      vertex 68.5445 35.7918 19.2155
      vertex 68.5445 35.7918 19.8845
    endloop
  endfacet
  facet normal 0.70278 0.711407 -0
    outer loop
      vertex 69.0558 35.2867 0
      vertex 68.5445 35.7918 19.2155
      vertex 69.0558 35.2867 39
    endloop
  endfacet
  facet normal 0.702782 0.711405 7.63266e-08
    outer loop
      vertex 69.0558 35.2867 0
      vertex 68.4455 35.8896 18.5611
      vertex 68.5445 35.7918 19.2155
    endloop
  endfacet
  facet normal 0.702859 0.71133 5.06154e-06
    outer loop
      vertex 69.0558 35.2867 0
      vertex 68.252 36.0808 17.95
      vertex 68.4455 35.8896 18.5611
    endloop
  endfacet
  facet normal 0.702774 0.711414 -2.45853e-06
    outer loop
      vertex 69.0558 35.2867 0
      vertex 67.9722 36.3572 17.4088
      vertex 68.252 36.0808 17.95
    endloop
  endfacet
  facet normal 0.702864 0.711324 8.68043e-06
    outer loop
      vertex 69.0558 35.2867 0
      vertex 67.6186 36.7066 16.9611
      vertex 67.9722 36.3572 17.4088
    endloop
  endfacet
  facet normal 0.702723 0.711464 -1.50153e-05
    outer loop
      vertex 69.0558 35.2867 0
      vertex 67.326 36.9956 16.7237
      vertex 67.6186 36.7066 16.9611
    endloop
  endfacet
  facet normal 0.702796 0.711391 0
    outer loop
      vertex 67.326 36.9956 16.7237
      vertex 69.0558 35.2867 0
      vertex 67.326 36.9956 0
    endloop
  endfacet
  facet normal 0.677293 0.735713 1.16387e-05
    outer loop
      vertex 66.7336 37.5407 16.4199
      vertex 67.326 36.9956 0
      vertex 66.2437 37.9917 16.35
    endloop
  endfacet
  facet normal 0.677131 0.735862 8.49122e-07
    outer loop
      vertex 67.2022 37.1095 16.6267
      vertex 67.326 36.9956 0
      vertex 66.7336 37.5407 16.4199
    endloop
  endfacet
  facet normal 0.677069 0.735919 -0
    outer loop
      vertex 67.326 36.9956 0
      vertex 67.2022 37.1095 16.6267
      vertex 67.326 36.9956 16.7237
    endloop
  endfacet
  facet normal 0.677161 0.735835 -4.53346e-06
    outer loop
      vertex 65.5226 38.6552 0
      vertex 66.2437 37.9917 16.35
      vertex 67.326 36.9956 0
    endloop
  endfacet
  facet normal 0.677138 0.735856 -2.64608e-06
    outer loop
      vertex 66.2437 37.9917 16.35
      vertex 65.5226 38.6552 0
      vertex 65.7537 38.4426 16.4199
    endloop
  endfacet
  facet normal 0.677036 0.73595 0
    outer loop
      vertex 65.7537 38.4426 16.4199
      vertex 65.5226 38.6552 0
      vertex 65.5226 38.6552 16.5219
    endloop
  endfacet
  facet normal 0.677161 0.735835 4.56136e-06
    outer loop
      vertex 67.326 36.9956 39
      vertex 66.2437 37.9917 22.75
      vertex 65.5226 38.6552 39
    endloop
  endfacet
  facet normal 0.677293 0.735713 -1.17097e-05
    outer loop
      vertex 67.326 36.9956 39
      vertex 66.7336 37.5407 22.6801
      vertex 66.2437 37.9917 22.75
    endloop
  endfacet
  facet normal 0.677131 0.735862 -8.54243e-07
    outer loop
      vertex 67.326 36.9956 39
      vertex 67.2022 37.1095 22.4733
      vertex 66.7336 37.5407 22.6801
    endloop
  endfacet
  facet normal 0.677069 0.735919 0
    outer loop
      vertex 67.2022 37.1095 22.4733
      vertex 67.326 36.9956 39
      vertex 67.326 36.9956 22.3763
    endloop
  endfacet
  facet normal 0.677138 0.735856 2.66226e-06
    outer loop
      vertex 65.7537 38.4426 22.6801
      vertex 65.5226 38.6552 39
      vertex 66.2437 37.9917 22.75
    endloop
  endfacet
  facet normal 0.677036 0.73595 0
    outer loop
      vertex 65.5226 38.6552 39
      vertex 65.7537 38.4426 22.6801
      vertex 65.5226 38.6552 22.5781
    endloop
  endfacet
  facet normal 0.651141 0.758956 -0
    outer loop
      vertex 65.5226 38.6552 22.5781
      vertex 63.648 40.2635 39
      vertex 65.5226 38.6552 39
    endloop
  endfacet
  facet normal 0.651099 0.758993 -8.41743e-06
    outer loop
      vertex 65.2771 38.8658 22.4733
      vertex 63.648 40.2635 39
      vertex 65.5226 38.6552 22.5781
    endloop
  endfacet
  facet normal 0.651185 0.758919 6.36934e-06
    outer loop
      vertex 64.8361 39.2442 22.1389
      vertex 63.648 40.2635 39
      vertex 65.2771 38.8658 22.4733
    endloop
  endfacet
  facet normal 0.651092 0.758999 -5.03572e-06
    outer loop
      vertex 64.4577 39.5688 21.6912
      vertex 63.648 40.2635 39
      vertex 64.8361 39.2442 22.1389
    endloop
  endfacet
  facet normal 0.651166 0.758935 9.79274e-07
    outer loop
      vertex 64.1584 39.8256 21.15
      vertex 63.648 40.2635 39
      vertex 64.4577 39.5688 21.6912
    endloop
  endfacet
  facet normal 0.651181 0.758923 1.702e-06
    outer loop
      vertex 63.9513 40.0033 20.5389
      vertex 63.648 40.2635 39
      vertex 64.1584 39.8256 21.15
    endloop
  endfacet
  facet normal 0.650929 0.759139 -5.47804e-06
    outer loop
      vertex 63.8454 40.0941 19.8845
      vertex 63.648 40.2635 39
      vertex 63.9513 40.0033 20.5389
    endloop
  endfacet
  facet normal 0.651234 0.758877 -0
    outer loop
      vertex 63.8454 40.0941 19.2155
      vertex 63.648 40.2635 39
      vertex 63.8454 40.0941 19.8845
    endloop
  endfacet
  facet normal 0.651141 0.758956 0
    outer loop
      vertex 63.648 40.2635 0
      vertex 65.5226 38.6552 16.5219
      vertex 65.5226 38.6552 0
    endloop
  endfacet
  facet normal 0.651099 0.758993 8.36883e-06
    outer loop
      vertex 65.5226 38.6552 16.5219
      vertex 63.648 40.2635 0
      vertex 65.2771 38.8658 16.6267
    endloop
  endfacet
  facet normal 0.651185 0.758919 -6.33368e-06
    outer loop
      vertex 65.2771 38.8658 16.6267
      vertex 63.648 40.2635 0
      vertex 64.8361 39.2442 16.9611
    endloop
  endfacet
  facet normal 0.651092 0.758999 5.00831e-06
    outer loop
      vertex 64.8361 39.2442 16.9611
      vertex 63.648 40.2635 0
      vertex 64.4577 39.5688 17.4088
    endloop
  endfacet
  facet normal 0.651166 0.758935 -9.74085e-07
    outer loop
      vertex 64.4577 39.5688 17.4088
      vertex 63.648 40.2635 0
      vertex 64.1584 39.8256 17.95
    endloop
  endfacet
  facet normal 0.651181 0.758923 -1.69325e-06
    outer loop
      vertex 64.1584 39.8256 17.95
      vertex 63.648 40.2635 0
      vertex 63.9513 40.0033 18.5611
    endloop
  endfacet
  facet normal 0.651234 0.758877 0
    outer loop
      vertex 63.8454 40.0941 19.2155
      vertex 63.648 40.2635 0
      vertex 63.648 40.2635 39
    endloop
  endfacet
  facet normal 0.650929 0.759139 5.45123e-06
    outer loop
      vertex 63.9513 40.0033 18.5611
      vertex 63.648 40.2635 0
      vertex 63.8454 40.0941 19.2155
    endloop
  endfacet
  facet normal 0.62468 0.780881 -0
    outer loop
      vertex 63.648 40.2635 0
      vertex 61.7043 41.8184 39
      vertex 63.648 40.2635 39
    endloop
  endfacet
  facet normal 0.62468 0.780881 0
    outer loop
      vertex 61.7043 41.8184 39
      vertex 63.648 40.2635 0
      vertex 61.7043 41.8184 0
    endloop
  endfacet
  facet normal 0.59795 0.801533 -0
    outer loop
      vertex 61.7043 41.8184 0
      vertex 59.694 43.3181 39
      vertex 61.7043 41.8184 39
    endloop
  endfacet
  facet normal 0.59795 0.801533 0
    outer loop
      vertex 59.694 43.3181 39
      vertex 61.7043 41.8184 0
      vertex 59.694 43.3181 0
    endloop
  endfacet
  facet normal 0.57095 0.820985 -0
    outer loop
      vertex 59.694 43.3181 0
      vertex 57.6195 44.7608 39
      vertex 59.694 43.3181 39
    endloop
  endfacet
  facet normal 0.57095 0.820985 0
    outer loop
      vertex 57.6195 44.7608 39
      vertex 59.694 43.3181 0
      vertex 57.6195 44.7608 0
    endloop
  endfacet
  facet normal 0.543709 0.839274 -0
    outer loop
      vertex 57.6195 44.7608 0
      vertex 55.4833 46.1447 39
      vertex 57.6195 44.7608 39
    endloop
  endfacet
  facet normal 0.543709 0.839274 0
    outer loop
      vertex 55.4833 46.1447 39
      vertex 57.6195 44.7608 0
      vertex 55.4833 46.1447 0
    endloop
  endfacet
  facet normal 0.516296 0.85641 -0
    outer loop
      vertex 55.4833 46.1447 0
      vertex 53.2881 47.4681 39
      vertex 55.4833 46.1447 39
    endloop
  endfacet
  facet normal 0.516296 0.85641 0
    outer loop
      vertex 53.2881 47.4681 39
      vertex 55.4833 46.1447 0
      vertex 53.2881 47.4681 0
    endloop
  endfacet
  facet normal 0.488706 0.872449 -0
    outer loop
      vertex 53.2881 47.4681 0
      vertex 51.0364 48.7294 39
      vertex 53.2881 47.4681 39
    endloop
  endfacet
  facet normal 0.488706 0.872449 0
    outer loop
      vertex 51.0364 48.7294 39
      vertex 53.2881 47.4681 0
      vertex 51.0364 48.7294 0
    endloop
  endfacet
  facet normal 0.461002 0.887399 -0
    outer loop
      vertex 51.0364 48.7294 0
      vertex 48.7311 49.927 39
      vertex 51.0364 48.7294 39
    endloop
  endfacet
  facet normal 0.461002 0.887399 0
    outer loop
      vertex 48.7311 49.927 39
      vertex 51.0364 48.7294 0
      vertex 48.7311 49.927 0
    endloop
  endfacet
  facet normal 0.433251 0.901273 -0
    outer loop
      vertex 48.7311 49.927 0
      vertex 46.375 51.0596 39
      vertex 48.7311 49.927 39
    endloop
  endfacet
  facet normal 0.433251 0.901273 0
    outer loop
      vertex 46.375 51.0596 39
      vertex 48.7311 49.927 0
      vertex 46.375 51.0596 0
    endloop
  endfacet
  facet normal 0.40538 0.914148 -0
    outer loop
      vertex 46.375 51.0596 0
      vertex 43.9709 52.1257 39
      vertex 46.375 51.0596 39
    endloop
  endfacet
  facet normal 0.40538 0.914148 0
    outer loop
      vertex 43.9709 52.1257 39
      vertex 46.375 51.0596 0
      vertex 43.9709 52.1257 0
    endloop
  endfacet
  facet normal 0.377452 0.926029 -0
    outer loop
      vertex 43.9709 52.1257 0
      vertex 41.5217 53.124 39
      vertex 43.9709 52.1257 39
    endloop
  endfacet
  facet normal 0.377452 0.926029 0
    outer loop
      vertex 41.5217 53.124 39
      vertex 43.9709 52.1257 0
      vertex 41.5217 53.124 0
    endloop
  endfacet
  facet normal 0.349537 0.936922 -0
    outer loop
      vertex 41.5217 53.124 0
      vertex 40 53.6917 39
      vertex 41.5217 53.124 39
    endloop
  endfacet
  facet normal 0.349537 0.936922 0
    outer loop
      vertex 40 53.6917 39
      vertex 41.5217 53.124 0
      vertex 40 53.6917 0
    endloop
  endfacet
  facet normal -0.405397 -0.914141 0
    outer loop
      vertex 40 43.0835 0
      vertex 40.4688 42.8756 39
      vertex 40 43.0835 39
    endloop
  endfacet
  facet normal -0.405397 -0.914141 -0
    outer loop
      vertex 40.4688 42.8756 39
      vertex 40 43.0835 0
      vertex 40.4688 42.8756 0
    endloop
  endfacet
  facet normal -0.433208 -0.901294 0
    outer loop
      vertex 40.4688 42.8756 0
      vertex 42.4715 41.913 39
      vertex 40.4688 42.8756 39
    endloop
  endfacet
  facet normal -0.433208 -0.901294 -0
    outer loop
      vertex 42.4715 41.913 39
      vertex 40.4688 42.8756 0
      vertex 42.4715 41.913 0
    endloop
  endfacet
  facet normal -0.461018 -0.887391 0
    outer loop
      vertex 42.4715 41.913 0
      vertex 44.431 40.895 39
      vertex 42.4715 41.913 39
    endloop
  endfacet
  facet normal -0.461018 -0.887391 -0
    outer loop
      vertex 44.431 40.895 39
      vertex 42.4715 41.913 0
      vertex 44.431 40.895 0
    endloop
  endfacet
  facet normal -0.488748 -0.872425 0
    outer loop
      vertex 44.431 40.895 0
      vertex 46.3449 39.8228 39
      vertex 44.431 40.895 39
    endloop
  endfacet
  facet normal -0.488748 -0.872425 -0
    outer loop
      vertex 46.3449 39.8228 39
      vertex 44.431 40.895 0
      vertex 46.3449 39.8228 0
    endloop
  endfacet
  facet normal -0.51627 -0.856426 0
    outer loop
      vertex 46.3449 39.8228 0
      vertex 48.2108 38.698 39
      vertex 46.3449 39.8228 39
    endloop
  endfacet
  facet normal -0.51627 -0.856426 -0
    outer loop
      vertex 48.2108 38.698 39
      vertex 46.3449 39.8228 0
      vertex 48.2108 38.698 0
    endloop
  endfacet
  facet normal -0.543698 -0.839281 0
    outer loop
      vertex 48.2108 38.698 0
      vertex 50.0266 37.5217 39
      vertex 48.2108 38.698 39
    endloop
  endfacet
  facet normal -0.543698 -0.839281 -0
    outer loop
      vertex 50.0266 37.5217 39
      vertex 48.2108 38.698 0
      vertex 50.0266 37.5217 0
    endloop
  endfacet
  facet normal -0.570957 -0.82098 0
    outer loop
      vertex 50.0266 37.5217 0
      vertex 51.7899 36.2954 39
      vertex 50.0266 37.5217 39
    endloop
  endfacet
  facet normal -0.570957 -0.82098 -0
    outer loop
      vertex 51.7899 36.2954 39
      vertex 50.0266 37.5217 0
      vertex 51.7899 36.2954 0
    endloop
  endfacet
  facet normal -0.597957 -0.801528 -2.78848e-06
    outer loop
      vertex 51.7899 36.2954 39
      vertex 53.1028 35.316 24.5
      vertex 53.4987 35.0206 39
    endloop
  endfacet
  facet normal -0.597937 -0.801543 0
    outer loop
      vertex 51.7899 36.2954 39
      vertex 53.1028 35.316 14.5
      vertex 53.1028 35.316 24.5
    endloop
  endfacet
  facet normal -0.597937 -0.801543 0
    outer loop
      vertex 51.7899 36.2954 0
      vertex 53.1028 35.316 14.5
      vertex 51.7899 36.2954 39
    endloop
  endfacet
  facet normal -0.597957 -0.801528 2.78848e-06
    outer loop
      vertex 53.4987 35.0206 0
      vertex 53.1028 35.316 14.5
      vertex 51.7899 36.2954 0
    endloop
  endfacet
  facet normal -0.598022 -0.801479 0
    outer loop
      vertex 53.1028 35.316 14.5
      vertex 53.4987 35.0206 0
      vertex 53.4987 35.0206 14.5
    endloop
  endfacet
  facet normal -0.598022 -0.801479 -0
    outer loop
      vertex 53.4987 35.0206 39
      vertex 53.1028 35.316 24.5
      vertex 53.4987 35.0206 24.5
    endloop
  endfacet
  facet normal -0.624701 -0.780864 0
    outer loop
      vertex 53.4987 35.0206 0
      vertex 55.1508 33.6989 14.5
      vertex 53.4987 35.0206 14.5
    endloop
  endfacet
  facet normal -0.624701 -0.780864 -0
    outer loop
      vertex 55.1508 33.6989 14.5
      vertex 53.4987 35.0206 0
      vertex 55.1508 33.6989 0
    endloop
  endfacet
  facet normal -0.624701 -0.780864 0
    outer loop
      vertex 53.4987 35.0206 24.5
      vertex 55.1508 33.6989 39
      vertex 53.4987 35.0206 39
    endloop
  endfacet
  facet normal -0.624701 -0.780864 -0
    outer loop
      vertex 55.1508 33.6989 39
      vertex 53.4987 35.0206 24.5
      vertex 55.1508 33.6989 24.5
    endloop
  endfacet
  facet normal -0.651129 -0.758967 0
    outer loop
      vertex 55.1508 33.6989 0
      vertex 56.7442 32.3319 14.5
      vertex 55.1508 33.6989 14.5
    endloop
  endfacet
  facet normal -0.651129 -0.758967 -0
    outer loop
      vertex 56.7442 32.3319 14.5
      vertex 55.1508 33.6989 0
      vertex 56.7442 32.3319 0
    endloop
  endfacet
  facet normal -0.651129 -0.758967 0
    outer loop
      vertex 55.1508 33.6989 24.5
      vertex 56.7442 32.3319 39
      vertex 55.1508 33.6989 39
    endloop
  endfacet
  facet normal -0.651129 -0.758967 -0
    outer loop
      vertex 56.7442 32.3319 39
      vertex 55.1508 33.6989 24.5
      vertex 56.7442 32.3319 24.5
    endloop
  endfacet
  facet normal -0.677143 -0.735852 0
    outer loop
      vertex 56.7442 32.3319 0
      vertex 58.2771 30.9213 14.5
      vertex 56.7442 32.3319 14.5
    endloop
  endfacet
  facet normal -0.677143 -0.735852 -0
    outer loop
      vertex 58.2771 30.9213 14.5
      vertex 56.7442 32.3319 0
      vertex 58.2771 30.9213 0
    endloop
  endfacet
  facet normal -0.677143 -0.735852 0
    outer loop
      vertex 56.7442 32.3319 24.5
      vertex 58.2771 30.9213 39
      vertex 56.7442 32.3319 39
    endloop
  endfacet
  facet normal -0.677143 -0.735852 -0
    outer loop
      vertex 58.2771 30.9213 39
      vertex 56.7442 32.3319 24.5
      vertex 58.2771 30.9213 24.5
    endloop
  endfacet
  facet normal -0.702788 -0.7114 0
    outer loop
      vertex 58.2771 30.9213 0
      vertex 59.7475 29.4687 14.5
      vertex 58.2771 30.9213 14.5
    endloop
  endfacet
  facet normal -0.702788 -0.7114 -0
    outer loop
      vertex 59.7475 29.4687 14.5
      vertex 58.2771 30.9213 0
      vertex 59.7475 29.4687 0
    endloop
  endfacet
  facet normal -0.702788 -0.7114 0
    outer loop
      vertex 58.2771 30.9213 24.5
      vertex 59.7475 29.4687 39
      vertex 58.2771 30.9213 39
    endloop
  endfacet
  facet normal -0.702788 -0.7114 -0
    outer loop
      vertex 59.7475 29.4687 39
      vertex 58.2771 30.9213 24.5
      vertex 59.7475 29.4687 24.5
    endloop
  endfacet
  facet normal -0.727929 -0.685652 0
    outer loop
      vertex 61.1536 27.9759 0
      vertex 59.7475 29.4687 14.5
      vertex 59.7475 29.4687 0
    endloop
  endfacet
  facet normal -0.727929 -0.685652 0
    outer loop
      vertex 59.7475 29.4687 14.5
      vertex 61.1536 27.9759 0
      vertex 61.1536 27.9759 14.5
    endloop
  endfacet
  facet normal -0.727929 -0.685652 0
    outer loop
      vertex 61.1536 27.9759 24.5
      vertex 59.7475 29.4687 39
      vertex 59.7475 29.4687 24.5
    endloop
  endfacet
  facet normal -0.727929 -0.685652 0
    outer loop
      vertex 59.7475 29.4687 39
      vertex 61.1536 27.9759 24.5
      vertex 61.1536 27.9759 39
    endloop
  endfacet
  facet normal -0.752482 -0.658612 0
    outer loop
      vertex 62.4937 26.4448 0
      vertex 61.1536 27.9759 14.5
      vertex 61.1536 27.9759 0
    endloop
  endfacet
  facet normal -0.752482 -0.658612 0
    outer loop
      vertex 61.1536 27.9759 14.5
      vertex 62.4937 26.4448 0
      vertex 62.4937 26.4448 14.5
    endloop
  endfacet
  facet normal -0.752482 -0.658612 0
    outer loop
      vertex 62.4937 26.4448 24.5
      vertex 61.1536 27.9759 39
      vertex 61.1536 27.9759 24.5
    endloop
  endfacet
  facet normal -0.752482 -0.658612 0
    outer loop
      vertex 61.1536 27.9759 39
      vertex 62.4937 26.4448 24.5
      vertex 62.4937 26.4448 39
    endloop
  endfacet
  facet normal -0.776399 -0.630242 0
    outer loop
      vertex 63.7662 24.8772 0
      vertex 62.4937 26.4448 14.5
      vertex 62.4937 26.4448 0
    endloop
  endfacet
  facet normal -0.776399 -0.630242 0
    outer loop
      vertex 62.4937 26.4448 14.5
      vertex 63.7662 24.8772 0
      vertex 63.7662 24.8772 14.5
    endloop
  endfacet
  facet normal -0.776399 -0.630242 0
    outer loop
      vertex 63.7662 24.8772 24.5
      vertex 62.4937 26.4448 39
      vertex 62.4937 26.4448 24.5
    endloop
  endfacet
  facet normal -0.776399 -0.630242 0
    outer loop
      vertex 62.4937 26.4448 39
      vertex 63.7662 24.8772 24.5
      vertex 63.7662 24.8772 39
    endloop
  endfacet
  facet normal -0.799697 -0.600404 0
    outer loop
      vertex 63.7662 24.8772 0
      vertex 63.8138 24.8138 14.5
      vertex 63.7662 24.8772 14.5
    endloop
  endfacet
  facet normal -0.799576 -0.600565 0
    outer loop
      vertex 63.8138 24.8138 14.5
      vertex 64.9696 23.275 0
      vertex 63.8138 24.8138 24.5
    endloop
  endfacet
  facet normal -0.799581 -0.600559 -1.06143e-06
    outer loop
      vertex 64.9696 23.275 0
      vertex 63.8138 24.8138 14.5
      vertex 63.7662 24.8772 0
    endloop
  endfacet
  facet normal -0.799697 -0.600404 0
    outer loop
      vertex 63.8138 24.8138 24.5
      vertex 63.7662 24.8772 39
      vertex 63.7662 24.8772 24.5
    endloop
  endfacet
  facet normal -0.799576 -0.600565 -0
    outer loop
      vertex 64.9696 23.275 39
      vertex 63.8138 24.8138 24.5
      vertex 64.9696 23.275 0
    endloop
  endfacet
  facet normal -0.799581 -0.600559 1.06143e-06
    outer loop
      vertex 63.8138 24.8138 24.5
      vertex 64.9696 23.275 39
      vertex 63.7662 24.8772 39
    endloop
  endfacet
  facet normal -0.821977 -0.569521 0
    outer loop
      vertex 66.1023 21.6402 0
      vertex 64.9696 23.275 39
      vertex 64.9696 23.275 0
    endloop
  endfacet
  facet normal -0.821977 -0.569521 0
    outer loop
      vertex 64.9696 23.275 39
      vertex 66.1023 21.6402 0
      vertex 66.1023 21.6402 39
    endloop
  endfacet
  facet normal -0.843455 -0.5372 0
    outer loop
      vertex 67.163 19.9748 0
      vertex 66.1023 21.6402 39
      vertex 66.1023 21.6402 0
    endloop
  endfacet
  facet normal -0.843455 -0.5372 0
    outer loop
      vertex 66.1023 21.6402 39
      vertex 67.163 19.9748 0
      vertex 67.163 19.9748 39
    endloop
  endfacet
  facet normal -0.863962 -0.503557 0
    outer loop
      vertex 68.1504 18.2807 0
      vertex 67.163 19.9748 39
      vertex 67.163 19.9748 0
    endloop
  endfacet
  facet normal -0.863962 -0.503557 0
    outer loop
      vertex 67.163 19.9748 39
      vertex 68.1504 18.2807 0
      vertex 68.1504 18.2807 39
    endloop
  endfacet
  facet normal -0.883332 -0.468749 0
    outer loop
      vertex 69.0634 16.5602 0
      vertex 68.1504 18.2807 39
      vertex 68.1504 18.2807 0
    endloop
  endfacet
  facet normal -0.883332 -0.468749 0
    outer loop
      vertex 68.1504 18.2807 39
      vertex 69.0634 16.5602 0
      vertex 69.0634 16.5602 39
    endloop
  endfacet
  facet normal -0.901584 -0.432605 0
    outer loop
      vertex 69.9007 14.8152 0
      vertex 69.0634 16.5602 39
      vertex 69.0634 16.5602 0
    endloop
  endfacet
  facet normal -0.901584 -0.432605 0
    outer loop
      vertex 69.0634 16.5602 39
      vertex 69.9007 14.8152 0
      vertex 69.9007 14.8152 39
    endloop
  endfacet
  facet normal -0.918553 -0.395299 0
    outer loop
      vertex 70.6613 13.0478 0
      vertex 69.9007 14.8152 39
      vertex 69.9007 14.8152 0
    endloop
  endfacet
  facet normal -0.918553 -0.395299 0
    outer loop
      vertex 69.9007 14.8152 39
      vertex 70.6613 13.0478 0
      vertex 70.6613 13.0478 39
    endloop
  endfacet
  facet normal -0.934107 -0.356993 0
    outer loop
      vertex 71.3444 11.2604 0
      vertex 70.6613 13.0478 39
      vertex 70.6613 13.0478 0
    endloop
  endfacet
  facet normal -0.934107 -0.356993 0
    outer loop
      vertex 70.6613 13.0478 39
      vertex 71.3444 11.2604 0
      vertex 71.3444 11.2604 39
    endloop
  endfacet
  facet normal -0.948214 -0.317631 0
    outer loop
      vertex 71.9492 9.45491 0
      vertex 71.3444 11.2604 39
      vertex 71.3444 11.2604 0
    endloop
  endfacet
  facet normal -0.948214 -0.317631 0
    outer loop
      vertex 71.3444 11.2604 39
      vertex 71.9492 9.45491 0
      vertex 71.9492 9.45491 39
    endloop
  endfacet
  facet normal -0.960804 -0.27723 0
    outer loop
      vertex 72.4747 7.63367 0
      vertex 71.9492 9.45491 39
      vertex 71.9492 9.45491 0
    endloop
  endfacet
  facet normal -0.960804 -0.27723 0
    outer loop
      vertex 71.9492 9.45491 39
      vertex 72.4747 7.63367 0
      vertex 72.4747 7.63367 39
    endloop
  endfacet
  facet normal -0.971717 -0.236147 0
    outer loop
      vertex 72.9206 5.79884 0
      vertex 72.4747 7.63367 39
      vertex 72.4747 7.63367 0
    endloop
  endfacet
  facet normal -0.971717 -0.236147 0
    outer loop
      vertex 72.4747 7.63367 39
      vertex 72.9206 5.79884 0
      vertex 72.9206 5.79884 39
    endloop
  endfacet
  facet normal -0.98096 -0.194211 0
    outer loop
      vertex 73.2861 3.9527 0
      vertex 72.9206 5.79884 39
      vertex 72.9206 5.79884 0
    endloop
  endfacet
  facet normal -0.98096 -0.194211 0
    outer loop
      vertex 72.9206 5.79884 39
      vertex 73.2861 3.9527 0
      vertex 73.2861 3.9527 39
    endloop
  endfacet
  facet normal -0.988429 -0.151684 0
    outer loop
      vertex 73.5708 2.09749 0
      vertex 73.2861 3.9527 39
      vertex 73.2861 3.9527 0
    endloop
  endfacet
  facet normal -0.988429 -0.151684 0
    outer loop
      vertex 73.2861 3.9527 39
      vertex 73.5708 2.09749 0
      vertex 73.5708 2.09749 39
    endloop
  endfacet
  facet normal -0.994075 -0.108694 0
    outer loop
      vertex 73.7744 0.235443 0
      vertex 73.5708 2.09749 39
      vertex 73.5708 2.09749 0
    endloop
  endfacet
  facet normal -0.994075 -0.108694 0
    outer loop
      vertex 73.5708 2.09749 39
      vertex 73.7744 0.235443 0
      vertex 73.7744 0.235443 39
    endloop
  endfacet
  facet normal -0.99784 -0.0656911 0
    outer loop
      vertex 73.7899 0 0
      vertex 73.7744 0.235443 39
      vertex 73.7744 0.235443 0
    endloop
  endfacet
  facet normal -0.99784 -0.0656911 0
    outer loop
      vertex 73.7744 0.235443 39
      vertex 73.7899 0 0
      vertex 73.7899 0 39
    endloop
  endfacet
  facet normal -0.707095 -0.707119 0
    outer loop
      vertex 59.5355 41.7487 14.5
      vertex 62.5178 38.7665 19.2155
      vertex 59.5355 41.7487 24.5
    endloop
  endfacet
  facet normal -0.707166 -0.707047 9.01861e-05
    outer loop
      vertex 59.5355 41.7487 14.5
      vertex 62.6161 38.6681 18.5611
      vertex 62.5178 38.7665 19.2155
    endloop
  endfacet
  facet normal -0.707107 -0.707107 0
    outer loop
      vertex 59.5355 41.7487 14.5
      vertex 62.8085 38.4757 17.95
      vertex 62.6161 38.6681 18.5611
    endloop
  endfacet
  facet normal -0.707062 -0.707151 -8.47559e-05
    outer loop
      vertex 59.5355 41.7487 14.5
      vertex 63.0866 38.1977 17.4088
      vertex 62.8085 38.4757 17.95
    endloop
  endfacet
  facet normal -0.707101 -0.707113 9.51472e-06
    outer loop
      vertex 59.5355 41.7487 14.5
      vertex 63.4381 37.8462 16.9611
      vertex 63.0866 38.1977 17.4088
    endloop
  endfacet
  facet normal -0.707102 -0.707112 1.25232e-05
    outer loop
      vertex 59.5355 41.7487 14.5
      vertex 63.8478 37.4365 16.6267
      vertex 63.4381 37.8462 16.9611
    endloop
  endfacet
  facet normal -0.707103 -0.707111 1.72093e-05
    outer loop
      vertex 59.5355 41.7487 14.5
      vertex 64.2977 36.9866 16.4199
      vertex 63.8478 37.4365 16.6267
    endloop
  endfacet
  facet normal -0.70716 -0.707054 0.000299331
    outer loop
      vertex 59.5355 41.7487 14.5
      vertex 64.7681 36.5161 16.35
      vertex 64.2977 36.9866 16.4199
    endloop
  endfacet
  facet normal -0.707107 -0.707107 2.56051e-15
    outer loop
      vertex 70.1421 31.1421 14.5
      vertex 64.7681 36.5161 16.35
      vertex 59.5355 41.7487 14.5
    endloop
  endfacet
  facet normal -0.707118 -0.707095 0
    outer loop
      vertex 67.0185 34.2658 19.2155
      vertex 70.1421 31.1421 14.5
      vertex 67.0185 34.2658 19.8845
    endloop
  endfacet
  facet normal -0.707116 -0.707098 2.77416e-06
    outer loop
      vertex 66.9201 34.3642 18.5611
      vertex 70.1421 31.1421 14.5
      vertex 67.0185 34.2658 19.2155
    endloop
  endfacet
  facet normal -0.707115 -0.707099 4.94655e-06
    outer loop
      vertex 66.7277 34.5566 17.95
      vertex 70.1421 31.1421 14.5
      vertex 66.9201 34.3642 18.5611
    endloop
  endfacet
  facet normal -0.707114 -0.7071 7.00305e-06
    outer loop
      vertex 66.4497 34.8346 17.4088
      vertex 70.1421 31.1421 14.5
      vertex 66.7277 34.5566 17.95
    endloop
  endfacet
  facet normal -0.707074 -0.707139 0.000106871
    outer loop
      vertex 66.0981 35.1861 16.9611
      vertex 70.1421 31.1421 14.5
      vertex 66.4497 34.8346 17.4088
    endloop
  endfacet
  facet normal -0.707144 -0.70707 -0.000121141
    outer loop
      vertex 65.6885 35.5958 16.6267
      vertex 70.1421 31.1421 14.5
      vertex 66.0981 35.1861 16.9611
    endloop
  endfacet
  facet normal -0.707111 -0.707103 1.69413e-05
    outer loop
      vertex 65.2386 36.0457 16.4199
      vertex 70.1421 31.1421 14.5
      vertex 65.6885 35.5958 16.6267
    endloop
  endfacet
  facet normal -0.707054 -0.707159 0.000304981
    outer loop
      vertex 64.7681 36.5161 16.35
      vertex 70.1421 31.1421 14.5
      vertex 65.2386 36.0457 16.4199
    endloop
  endfacet
  facet normal -0.707095 -0.707119 -0
    outer loop
      vertex 62.5178 38.7665 19.8845
      vertex 59.5355 41.7487 24.5
      vertex 62.5178 38.7665 19.2155
    endloop
  endfacet
  facet normal -0.707165 -0.707049 -9.05548e-05
    outer loop
      vertex 62.6161 38.6681 20.5389
      vertex 59.5355 41.7487 24.5
      vertex 62.5178 38.7665 19.8845
    endloop
  endfacet
  facet normal -0.707107 -0.707107 -3.56209e-16
    outer loop
      vertex 62.8085 38.4757 21.15
      vertex 59.5355 41.7487 24.5
      vertex 62.6161 38.6681 20.5389
    endloop
  endfacet
  facet normal -0.707063 -0.707151 8.56278e-05
    outer loop
      vertex 63.0866 38.1977 21.6912
      vertex 59.5355 41.7487 24.5
      vertex 62.8085 38.4757 21.15
    endloop
  endfacet
  facet normal -0.707101 -0.707113 -9.64449e-06
    outer loop
      vertex 63.4381 37.8462 22.1389
      vertex 59.5355 41.7487 24.5
      vertex 63.0866 38.1977 21.6912
    endloop
  endfacet
  facet normal -0.707102 -0.707112 -1.2749e-05
    outer loop
      vertex 63.8478 37.4365 22.4733
      vertex 59.5355 41.7487 24.5
      vertex 63.4381 37.8462 22.1389
    endloop
  endfacet
  facet normal -0.707103 -0.707111 -1.76386e-05
    outer loop
      vertex 64.2977 36.9866 22.6801
      vertex 59.5355 41.7487 24.5
      vertex 63.8478 37.4365 22.4733
    endloop
  endfacet
  facet normal -0.707159 -0.707055 -0.000311174
    outer loop
      vertex 64.7681 36.5161 22.75
      vertex 59.5355 41.7487 24.5
      vertex 64.2977 36.9866 22.6801
    endloop
  endfacet
  facet normal -0.707055 -0.707158 -0.000316949
    outer loop
      vertex 70.1421 31.1421 24.5
      vertex 64.7681 36.5161 22.75
      vertex 65.2386 36.0457 22.6801
    endloop
  endfacet
  facet normal -0.707118 -0.707095 -0
    outer loop
      vertex 70.1421 31.1421 24.5
      vertex 67.0185 34.2658 19.8845
      vertex 70.1421 31.1421 14.5
    endloop
  endfacet
  facet normal -0.707116 -0.707098 -2.78509e-06
    outer loop
      vertex 67.0185 34.2658 19.8845
      vertex 70.1421 31.1421 24.5
      vertex 66.9201 34.3642 20.5389
    endloop
  endfacet
  facet normal -0.707107 -0.707107 -2.84217e-15
    outer loop
      vertex 64.7681 36.5161 22.75
      vertex 70.1421 31.1421 24.5
      vertex 59.5355 41.7487 24.5
    endloop
  endfacet
  facet normal -0.707111 -0.707103 -1.73572e-05
    outer loop
      vertex 65.6885 35.5958 22.4733
      vertex 70.1421 31.1421 24.5
      vertex 65.2386 36.0457 22.6801
    endloop
  endfacet
  facet normal -0.707143 -0.707071 0.000123281
    outer loop
      vertex 66.0981 35.1861 22.1389
      vertex 70.1421 31.1421 24.5
      vertex 65.6885 35.5958 22.4733
    endloop
  endfacet
  facet normal -0.707075 -0.707138 -0.000108294
    outer loop
      vertex 66.4497 34.8346 21.6912
      vertex 70.1421 31.1421 24.5
      vertex 66.0981 35.1861 22.1389
    endloop
  endfacet
  facet normal -0.707114 -0.7071 -7.0731e-06
    outer loop
      vertex 66.7277 34.5566 21.15
      vertex 70.1421 31.1421 24.5
      vertex 66.4497 34.8346 21.6912
    endloop
  endfacet
  facet normal -0.707115 -0.707099 -4.98139e-06
    outer loop
      vertex 66.9201 34.3642 20.5389
      vertex 70.1421 31.1421 24.5
      vertex 66.7277 34.5566 21.15
    endloop
  endfacet
  facet normal 0.645968 -0.645968 0.406756
    outer loop
      vertex 62.6161 38.6681 18.5611
      vertex 64.1584 39.8256 17.95
      vertex 63.9513 40.0033 18.5611
    endloop
  endfacet
  facet normal 0.645968 -0.645968 0.406756
    outer loop
      vertex 64.1584 39.8256 17.95
      vertex 62.6161 38.6681 18.5611
      vertex 62.8085 38.4757 17.95
    endloop
  endfacet
  facet normal 0.0738839 -0.0738839 -0.994526
    outer loop
      vertex 64.7681 36.5161 22.75
      vertex 65.7537 38.4426 22.6801
      vertex 66.2437 37.9917 22.75
    endloop
  endfacet
  facet normal 0.0738839 -0.0738839 -0.994526
    outer loop
      vertex 65.7537 38.4426 22.6801
      vertex 64.7681 36.5161 22.75
      vertex 64.2977 36.9866 22.6801
    endloop
  endfacet
  facet normal -0.0738839 0.0738839 0.994526
    outer loop
      vertex 66.2437 37.9917 16.35
      vertex 65.2386 36.0457 16.4199
      vertex 66.7336 37.5407 16.4199
    endloop
  endfacet
  facet normal -0.0738839 0.0738839 0.994526
    outer loop
      vertex 65.2386 36.0457 16.4199
      vertex 66.2437 37.9917 16.35
      vertex 64.7681 36.5161 16.35
    endloop
  endfacet
  facet normal -0.707107 0.707107 0
    outer loop
      vertex 67.0185 34.2658 19.2155
      vertex 68.5445 35.7918 19.8845
      vertex 68.5445 35.7918 19.2155
    endloop
  endfacet
  facet normal -0.707107 0.707107 0
    outer loop
      vertex 68.5445 35.7918 19.8845
      vertex 67.0185 34.2658 19.2155
      vertex 67.0185 34.2658 19.8845
    endloop
  endfacet
  facet normal 0.707107 -0.707107 0
    outer loop
      vertex 62.5178 38.7665 19.2155
      vertex 63.8454 40.0941 19.8845
      vertex 62.5178 38.7665 19.8845
    endloop
  endfacet
  facet normal 0.707107 -0.707107 0
    outer loop
      vertex 63.8454 40.0941 19.8845
      vertex 62.5178 38.7665 19.2155
      vertex 63.8454 40.0941 19.2155
    endloop
  endfacet
  facet normal 0.645968 -0.645968 -0.406756
    outer loop
      vertex 64.1584 39.8256 21.15
      vertex 62.6161 38.6681 20.5389
      vertex 63.9513 40.0033 20.5389
    endloop
  endfacet
  facet normal 0.645968 -0.645968 -0.406756
    outer loop
      vertex 62.6161 38.6681 20.5389
      vertex 64.1584 39.8256 21.15
      vertex 62.8085 38.4757 21.15
    endloop
  endfacet
  facet normal 0.218622 -0.218622 -0.951004
    outer loop
      vertex 64.2977 36.9866 22.6801
      vertex 65.5226 38.6552 22.5781
      vertex 65.7537 38.4426 22.6801
    endloop
  endfacet
  facet normal 0.218565 -0.218582 -0.951026
    outer loop
      vertex 63.8478 37.4365 22.4733
      vertex 65.5226 38.6552 22.5781
      vertex 64.2977 36.9866 22.6801
    endloop
  endfacet
  facet normal 0.218526 -0.218526 -0.951048
    outer loop
      vertex 65.5226 38.6552 22.5781
      vertex 63.8478 37.4365 22.4733
      vertex 65.2771 38.8658 22.4733
    endloop
  endfacet
  facet normal -0.473228 0.473197 0.743061
    outer loop
      vertex 67.6186 36.7066 16.9611
      vertex 66.4497 34.8346 17.4088
      vertex 67.9722 36.3572 17.4088
    endloop
  endfacet
  facet normal -0.473175 0.473175 0.743108
    outer loop
      vertex 66.4497 34.8346 17.4088
      vertex 67.6186 36.7066 16.9611
      vertex 66.0981 35.1861 16.9611
    endloop
  endfacet
  facet normal 0.218526 -0.218526 0.951048
    outer loop
      vertex 63.8478 37.4365 16.6267
      vertex 65.5226 38.6552 16.5219
      vertex 65.2771 38.8658 16.6267
    endloop
  endfacet
  facet normal 0.218622 -0.218622 0.951004
    outer loop
      vertex 65.5226 38.6552 16.5219
      vertex 64.2977 36.9866 16.4199
      vertex 65.7537 38.4426 16.4199
    endloop
  endfacet
  facet normal 0.218565 -0.218582 0.951026
    outer loop
      vertex 65.5226 38.6552 16.5219
      vertex 63.8478 37.4365 16.6267
      vertex 64.2977 36.9866 16.4199
    endloop
  endfacet
  facet normal 0.353459 -0.353459 0.866102
    outer loop
      vertex 64.8361 39.2442 16.9611
      vertex 63.8478 37.4365 16.6267
      vertex 65.2771 38.8658 16.6267
    endloop
  endfacet
  facet normal 0.353459 -0.353459 0.866102
    outer loop
      vertex 63.8478 37.4365 16.6267
      vertex 64.8361 39.2442 16.9611
      vertex 63.4381 37.8462 16.9611
    endloop
  endfacet
  facet normal 0.473213 -0.473213 0.743061
    outer loop
      vertex 64.4577 39.5688 17.4088
      vertex 63.4381 37.8462 16.9611
      vertex 64.8361 39.2442 16.9611
    endloop
  endfacet
  facet normal 0.473213 -0.473213 0.743061
    outer loop
      vertex 63.4381 37.8462 16.9611
      vertex 64.4577 39.5688 17.4088
      vertex 63.0866 38.1977 17.4088
    endloop
  endfacet
  facet normal 0.572053 -0.572053 0.587802
    outer loop
      vertex 64.1584 39.8256 17.95
      vertex 63.0866 38.1977 17.4088
      vertex 64.4577 39.5688 17.4088
    endloop
  endfacet
  facet normal 0.572053 -0.572053 0.587802
    outer loop
      vertex 63.0866 38.1977 17.4088
      vertex 64.1584 39.8256 17.95
      vertex 62.8085 38.4757 17.95
    endloop
  endfacet
  facet normal 0.691657 -0.691657 0.207899
    outer loop
      vertex 62.5178 38.7665 19.2155
      vertex 63.9513 40.0033 18.5611
      vertex 63.8454 40.0941 19.2155
    endloop
  endfacet
  facet normal 0.691657 -0.691657 0.207899
    outer loop
      vertex 63.9513 40.0033 18.5611
      vertex 62.5178 38.7665 19.2155
      vertex 62.6161 38.6681 18.5611
    endloop
  endfacet
  facet normal -0.0738839 0.0738839 -0.994526
    outer loop
      vertex 65.2386 36.0457 22.6801
      vertex 66.2437 37.9917 22.75
      vertex 66.7336 37.5407 22.6801
    endloop
  endfacet
  facet normal -0.0738839 0.0738839 -0.994526
    outer loop
      vertex 66.2437 37.9917 22.75
      vertex 65.2386 36.0457 22.6801
      vertex 64.7681 36.5161 22.75
    endloop
  endfacet
  facet normal 0.353459 -0.353459 -0.866102
    outer loop
      vertex 63.8478 37.4365 22.4733
      vertex 64.8361 39.2442 22.1389
      vertex 65.2771 38.8658 22.4733
    endloop
  endfacet
  facet normal 0.353459 -0.353459 -0.866102
    outer loop
      vertex 64.8361 39.2442 22.1389
      vertex 63.8478 37.4365 22.4733
      vertex 63.4381 37.8462 22.1389
    endloop
  endfacet
  facet normal 0.572053 -0.572053 -0.587802
    outer loop
      vertex 63.0866 38.1977 21.6912
      vertex 64.1584 39.8256 21.15
      vertex 64.4577 39.5688 21.6912
    endloop
  endfacet
  facet normal 0.572053 -0.572053 -0.587802
    outer loop
      vertex 64.1584 39.8256 21.15
      vertex 63.0866 38.1977 21.6912
      vertex 62.8085 38.4757 21.15
    endloop
  endfacet
  facet normal 0.691657 -0.691657 -0.207899
    outer loop
      vertex 63.9513 40.0033 20.5389
      vertex 62.5178 38.7665 19.8845
      vertex 63.8454 40.0941 19.8845
    endloop
  endfacet
  facet normal 0.691657 -0.691657 -0.207899
    outer loop
      vertex 62.5178 38.7665 19.8845
      vertex 63.9513 40.0033 20.5389
      vertex 62.6161 38.6681 20.5389
    endloop
  endfacet
  facet normal 0.473213 -0.473213 -0.743061
    outer loop
      vertex 63.4381 37.8462 22.1389
      vertex 64.4577 39.5688 21.6912
      vertex 64.8361 39.2442 22.1389
    endloop
  endfacet
  facet normal 0.473213 -0.473213 -0.743061
    outer loop
      vertex 64.4577 39.5688 21.6912
      vertex 63.4381 37.8462 22.1389
      vertex 63.0866 38.1977 21.6912
    endloop
  endfacet
  facet normal 0.0738839 -0.0738839 0.994526
    outer loop
      vertex 65.7537 38.4426 16.4199
      vertex 64.7681 36.5161 16.35
      vertex 66.2437 37.9917 16.35
    endloop
  endfacet
  facet normal 0.0738839 -0.0738839 0.994526
    outer loop
      vertex 64.7681 36.5161 16.35
      vertex 65.7537 38.4426 16.4199
      vertex 64.2977 36.9866 16.4199
    endloop
  endfacet
  facet normal -0.691642 0.691642 0.208
    outer loop
      vertex 66.9201 34.3642 18.5611
      vertex 68.5445 35.7918 19.2155
      vertex 68.4455 35.8896 18.5611
    endloop
  endfacet
  facet normal -0.691642 0.691642 0.208
    outer loop
      vertex 68.5445 35.7918 19.2155
      vertex 66.9201 34.3642 18.5611
      vertex 67.0185 34.2658 19.2155
    endloop
  endfacet
  facet normal -0.353442 0.353442 0.866116
    outer loop
      vertex 65.6885 35.5958 16.6267
      vertex 67.326 36.9956 16.7237
      vertex 67.2022 37.1095 16.6267
    endloop
  endfacet
  facet normal -0.353512 0.353512 0.866059
    outer loop
      vertex 67.326 36.9956 16.7237
      vertex 66.0981 35.1861 16.9611
      vertex 67.6186 36.7066 16.9611
    endloop
  endfacet
  facet normal -0.353487 0.353497 0.866076
    outer loop
      vertex 67.326 36.9956 16.7237
      vertex 65.6885 35.5958 16.6267
      vertex 66.0981 35.1861 16.9611
    endloop
  endfacet
  facet normal -0.218573 0.218573 0.951026
    outer loop
      vertex 66.7336 37.5407 16.4199
      vertex 65.6885 35.5958 16.6267
      vertex 67.2022 37.1095 16.6267
    endloop
  endfacet
  facet normal -0.218573 0.218573 0.951026
    outer loop
      vertex 65.6885 35.5958 16.6267
      vertex 66.7336 37.5407 16.4199
      vertex 65.2386 36.0457 16.4199
    endloop
  endfacet
  facet normal -0.645996 0.645996 0.406668
    outer loop
      vertex 68.252 36.0808 17.95
      vertex 66.9201 34.3642 18.5611
      vertex 68.4455 35.8896 18.5611
    endloop
  endfacet
  facet normal -0.645947 0.645989 0.406756
    outer loop
      vertex 66.9201 34.3642 18.5611
      vertex 68.252 36.0808 17.95
      vertex 66.7277 34.5566 17.95
    endloop
  endfacet
  facet normal -0.571998 0.572036 0.587871
    outer loop
      vertex 67.9722 36.3572 17.4088
      vertex 66.7277 34.5566 17.95
      vertex 68.252 36.0808 17.95
    endloop
  endfacet
  facet normal -0.572107 0.572069 0.587733
    outer loop
      vertex 66.7277 34.5566 17.95
      vertex 67.9722 36.3572 17.4088
      vertex 66.4497 34.8346 17.4088
    endloop
  endfacet
  facet normal -0.645996 0.645996 -0.406668
    outer loop
      vertex 66.9201 34.3642 20.5389
      vertex 68.252 36.0808 21.15
      vertex 68.4455 35.8896 20.5389
    endloop
  endfacet
  facet normal -0.645947 0.645989 -0.406756
    outer loop
      vertex 68.252 36.0808 21.15
      vertex 66.9201 34.3642 20.5389
      vertex 66.7277 34.5566 21.15
    endloop
  endfacet
  facet normal -0.473228 0.473197 -0.743061
    outer loop
      vertex 66.4497 34.8346 21.6912
      vertex 67.6186 36.7066 22.1389
      vertex 67.9722 36.3572 21.6912
    endloop
  endfacet
  facet normal -0.473175 0.473175 -0.743108
    outer loop
      vertex 67.6186 36.7066 22.1389
      vertex 66.4497 34.8346 21.6912
      vertex 66.0981 35.1861 22.1389
    endloop
  endfacet
  facet normal -0.218573 0.218573 -0.951026
    outer loop
      vertex 65.6885 35.5958 22.4733
      vertex 66.7336 37.5407 22.6801
      vertex 67.2022 37.1095 22.4733
    endloop
  endfacet
  facet normal -0.218573 0.218573 -0.951026
    outer loop
      vertex 66.7336 37.5407 22.6801
      vertex 65.6885 35.5958 22.4733
      vertex 65.2386 36.0457 22.6801
    endloop
  endfacet
  facet normal -0.691642 0.691642 -0.208
    outer loop
      vertex 68.5445 35.7918 19.8845
      vertex 66.9201 34.3642 20.5389
      vertex 68.4455 35.8896 20.5389
    endloop
  endfacet
  facet normal -0.691642 0.691642 -0.208
    outer loop
      vertex 66.9201 34.3642 20.5389
      vertex 68.5445 35.7918 19.8845
      vertex 67.0185 34.2658 19.8845
    endloop
  endfacet
  facet normal -0.353512 0.353512 -0.866059
    outer loop
      vertex 66.0981 35.1861 22.1389
      vertex 67.326 36.9956 22.3763
      vertex 67.6186 36.7066 22.1389
    endloop
  endfacet
  facet normal -0.353487 0.353497 -0.866076
    outer loop
      vertex 65.6885 35.5958 22.4733
      vertex 67.326 36.9956 22.3763
      vertex 66.0981 35.1861 22.1389
    endloop
  endfacet
  facet normal -0.353442 0.353442 -0.866116
    outer loop
      vertex 67.326 36.9956 22.3763
      vertex 65.6885 35.5958 22.4733
      vertex 67.2022 37.1095 22.4733
    endloop
  endfacet
  facet normal -0.571998 0.572036 -0.587871
    outer loop
      vertex 66.7277 34.5566 21.15
      vertex 67.9722 36.3572 21.6912
      vertex 68.252 36.0808 21.15
    endloop
  endfacet
  facet normal -0.572107 0.572069 -0.587733
    outer loop
      vertex 67.9722 36.3572 21.6912
      vertex 66.7277 34.5566 21.15
      vertex 66.4497 34.8346 21.6912
    endloop
  endfacet
  facet normal 0 0 -1
    outer loop
      vertex 63.7662 24.8772 24.5
      vertex 70.1421 31.1421 24.5
      vertex 63.8138 24.8138 24.5
    endloop
  endfacet
  facet normal 0 0 -1
    outer loop
      vertex 62.4937 26.4448 24.5
      vertex 70.1421 31.1421 24.5
      vertex 63.7662 24.8772 24.5
    endloop
  endfacet
  facet normal 0 0 -1
    outer loop
      vertex 61.1536 27.9759 24.5
      vertex 70.1421 31.1421 24.5
      vertex 62.4937 26.4448 24.5
    endloop
  endfacet
  facet normal 0 0 -1
    outer loop
      vertex 59.7475 29.4687 24.5
      vertex 70.1421 31.1421 24.5
      vertex 61.1536 27.9759 24.5
    endloop
  endfacet
  facet normal 0 0 -1
    outer loop
      vertex 58.2771 30.9213 24.5
      vertex 70.1421 31.1421 24.5
      vertex 59.7475 29.4687 24.5
    endloop
  endfacet
  facet normal -0 0 -1
    outer loop
      vertex 70.1421 31.1421 24.5
      vertex 58.2771 30.9213 24.5
      vertex 59.5355 41.7487 24.5
    endloop
  endfacet
  facet normal 0 0 -1
    outer loop
      vertex 56.7442 32.3319 24.5
      vertex 59.5355 41.7487 24.5
      vertex 58.2771 30.9213 24.5
    endloop
  endfacet
  facet normal 0 0 -1
    outer loop
      vertex 55.1508 33.6989 24.5
      vertex 59.5355 41.7487 24.5
      vertex 56.7442 32.3319 24.5
    endloop
  endfacet
  facet normal 0 0 -1
    outer loop
      vertex 53.4987 35.0206 24.5
      vertex 59.5355 41.7487 24.5
      vertex 55.1508 33.6989 24.5
    endloop
  endfacet
  facet normal 0 0 -1
    outer loop
      vertex 59.5355 41.7487 24.5
      vertex 53.4987 35.0206 24.5
      vertex 53.1028 35.316 24.5
    endloop
  endfacet
  facet normal 0 0 1
    outer loop
      vertex 70.1421 31.1421 14.5
      vertex 63.7662 24.8772 14.5
      vertex 63.8138 24.8138 14.5
    endloop
  endfacet
  facet normal 0 0 1
    outer loop
      vertex 70.1421 31.1421 14.5
      vertex 62.4937 26.4448 14.5
      vertex 63.7662 24.8772 14.5
    endloop
  endfacet
  facet normal 0 0 1
    outer loop
      vertex 70.1421 31.1421 14.5
      vertex 61.1536 27.9759 14.5
      vertex 62.4937 26.4448 14.5
    endloop
  endfacet
  facet normal 0 0 1
    outer loop
      vertex 70.1421 31.1421 14.5
      vertex 59.7475 29.4687 14.5
      vertex 61.1536 27.9759 14.5
    endloop
  endfacet
  facet normal 0 0 1
    outer loop
      vertex 58.2771 30.9213 14.5
      vertex 70.1421 31.1421 14.5
      vertex 59.5355 41.7487 14.5
    endloop
  endfacet
  facet normal 0 0 1
    outer loop
      vertex 70.1421 31.1421 14.5
      vertex 58.2771 30.9213 14.5
      vertex 59.7475 29.4687 14.5
    endloop
  endfacet
  facet normal 0 0 1
    outer loop
      vertex 59.5355 41.7487 14.5
      vertex 56.7442 32.3319 14.5
      vertex 58.2771 30.9213 14.5
    endloop
  endfacet
  facet normal 0 0 1
    outer loop
      vertex 59.5355 41.7487 14.5
      vertex 55.1508 33.6989 14.5
      vertex 56.7442 32.3319 14.5
    endloop
  endfacet
  facet normal 0 0 1
    outer loop
      vertex 59.5355 41.7487 14.5
      vertex 53.4987 35.0206 14.5
      vertex 55.1508 33.6989 14.5
    endloop
  endfacet
  facet normal 0 -0 1
    outer loop
      vertex 53.4987 35.0206 14.5
      vertex 59.5355 41.7487 14.5
      vertex 53.1028 35.316 14.5
    endloop
  endfacet
  facet normal 0.707107 -0.707107 0
    outer loop
      vertex 53.1028 35.316 24.5
      vertex 59.5355 41.7487 14.5
      vertex 59.5355 41.7487 24.5
    endloop
  endfacet
  facet normal 0.707107 -0.707107 0
    outer loop
      vertex 59.5355 41.7487 14.5
      vertex 53.1028 35.316 24.5
      vertex 53.1028 35.316 14.5
    endloop
  endfacet
  facet normal -0.707107 0.707107 0
    outer loop
      vertex 63.8138 24.8138 14.5
      vertex 70.1421 31.1421 24.5
      vertex 70.1421 31.1421 14.5
    endloop
  endfacet
  facet normal -0.707107 0.707107 0
    outer loop
      vertex 70.1421 31.1421 24.5
      vertex 63.8138 24.8138 14.5
      vertex 63.8138 24.8138 24.5
    endloop
  endfacet
endsolid OpenSCAD_Model
